<mxfile host="65bd71144e">
    <diagram id="yrxTlvf2ZtYwMUSM9fpy" name="Clases">
        <mxGraphModel dx="656" dy="475" grid="1" gridSize="10" guides="1" tooltips="1" connect="1" arrows="1" fold="1" page="1" pageScale="1" pageWidth="850" pageHeight="1100" math="0" shadow="0">
            <root>
                <mxCell id="0"/>
                <mxCell id="1" parent="0"/>
                <mxCell id="6" value="GUI" style="swimlane;fontStyle=1;align=center;verticalAlign=top;childLayout=stackLayout;horizontal=1;startSize=26;horizontalStack=0;resizeParent=1;resizeParentMax=0;resizeLast=0;collapsible=1;marginBottom=0;" parent="1" vertex="1">
                    <mxGeometry x="525" y="339" width="270" height="268" as="geometry"/>
                </mxCell>
                <mxCell id="D_V7qYtZIaXDzSuFnixD-32" value="+ colores:dict&#10;" style="text;strokeColor=none;fillColor=none;align=left;verticalAlign=top;spacingLeft=4;spacingRight=4;overflow=hidden;rotatable=0;points=[[0,0.5],[1,0.5]];portConstraint=eastwest;" vertex="1" parent="6">
                    <mxGeometry y="26" width="270" height="26" as="geometry"/>
                </mxCell>
                <mxCell id="7" value="+ cajero: Cajero" style="text;strokeColor=none;fillColor=none;align=left;verticalAlign=top;spacingLeft=4;spacingRight=4;overflow=hidden;rotatable=0;points=[[0,0.5],[1,0.5]];portConstraint=eastwest;" parent="6" vertex="1">
                    <mxGeometry y="52" width="270" height="26" as="geometry"/>
                </mxCell>
                <mxCell id="D_V7qYtZIaXDzSuFnixD-33" value="+ master: Tk" style="text;strokeColor=none;fillColor=none;align=left;verticalAlign=top;spacingLeft=4;spacingRight=4;overflow=hidden;rotatable=0;points=[[0,0.5],[1,0.5]];portConstraint=eastwest;" vertex="1" parent="6">
                    <mxGeometry y="78" width="270" height="26" as="geometry"/>
                </mxCell>
                <mxCell id="D_V7qYtZIaXDzSuFnixD-34" value="+ tabla: ListBox" style="text;strokeColor=none;fillColor=none;align=left;verticalAlign=top;spacingLeft=4;spacingRight=4;overflow=hidden;rotatable=0;points=[[0,0.5],[1,0.5]];portConstraint=eastwest;" vertex="1" parent="6">
                    <mxGeometry y="104" width="270" height="26" as="geometry"/>
                </mxCell>
                <mxCell id="8" value="" style="line;strokeWidth=1;fillColor=none;align=left;verticalAlign=middle;spacingTop=-1;spacingLeft=3;spacingRight=3;rotatable=0;labelPosition=right;points=[];portConstraint=eastwest;strokeColor=inherit;" parent="6" vertex="1">
                    <mxGeometry y="130" width="270" height="8" as="geometry"/>
                </mxCell>
                <mxCell id="9" value="- init(self, cajero, master=None): Frame" style="text;strokeColor=none;fillColor=none;align=left;verticalAlign=top;spacingLeft=4;spacingRight=4;overflow=hidden;rotatable=0;points=[[0,0.5],[1,0.5]];portConstraint=eastwest;" parent="6" vertex="1">
                    <mxGeometry y="138" width="270" height="26" as="geometry"/>
                </mxCell>
                <mxCell id="D_V7qYtZIaXDzSuFnixD-27" value="+ createWidgets(self):None" style="text;strokeColor=none;fillColor=none;align=left;verticalAlign=top;spacingLeft=4;spacingRight=4;overflow=hidden;rotatable=0;points=[[0,0.5],[1,0.5]];portConstraint=eastwest;" vertex="1" parent="6">
                    <mxGeometry y="164" width="270" height="26" as="geometry"/>
                </mxCell>
                <mxCell id="D_V7qYtZIaXDzSuFnixD-28" value="+ atender(self):None" style="text;strokeColor=none;fillColor=none;align=left;verticalAlign=top;spacingLeft=4;spacingRight=4;overflow=hidden;rotatable=0;points=[[0,0.5],[1,0.5]];portConstraint=eastwest;" vertex="1" parent="6">
                    <mxGeometry y="190" width="270" height="26" as="geometry"/>
                </mxCell>
                <mxCell id="D_V7qYtZIaXDzSuFnixD-31" value="+ agregarCliente(self,cliente):None" style="text;strokeColor=none;fillColor=none;align=left;verticalAlign=top;spacingLeft=4;spacingRight=4;overflow=hidden;rotatable=0;points=[[0,0.5],[1,0.5]];portConstraint=eastwest;" vertex="1" parent="6">
                    <mxGeometry y="216" width="270" height="26" as="geometry"/>
                </mxCell>
                <mxCell id="D_V7qYtZIaXDzSuFnixD-30" value="+ actualizartabla(self,clientes):None" style="text;strokeColor=none;fillColor=none;align=left;verticalAlign=top;spacingLeft=4;spacingRight=4;overflow=hidden;rotatable=0;points=[[0,0.5],[1,0.5]];portConstraint=eastwest;" vertex="1" parent="6">
                    <mxGeometry y="242" width="270" height="26" as="geometry"/>
                </mxCell>
                <mxCell id="10" value="Cajero" style="swimlane;fontStyle=1;align=center;verticalAlign=top;childLayout=stackLayout;horizontal=1;startSize=26;horizontalStack=0;resizeParent=1;resizeParentMax=0;resizeLast=0;collapsible=1;marginBottom=0;" parent="1" vertex="1">
                    <mxGeometry x="260" y="404" width="160" height="138" as="geometry"/>
                </mxCell>
                <mxCell id="11" value="+ clientes: list" style="text;strokeColor=none;fillColor=none;align=left;verticalAlign=top;spacingLeft=4;spacingRight=4;overflow=hidden;rotatable=0;points=[[0,0.5],[1,0.5]];portConstraint=eastwest;" parent="10" vertex="1">
                    <mxGeometry y="26" width="160" height="26" as="geometry"/>
                </mxCell>
                <mxCell id="12" value="" style="line;strokeWidth=1;fillColor=none;align=left;verticalAlign=middle;spacingTop=-1;spacingLeft=3;spacingRight=3;rotatable=0;labelPosition=right;points=[];portConstraint=eastwest;strokeColor=inherit;" parent="10" vertex="1">
                    <mxGeometry y="52" width="160" height="8" as="geometry"/>
                </mxCell>
                <mxCell id="13" value="- init(self):None" style="text;strokeColor=none;fillColor=none;align=left;verticalAlign=top;spacingLeft=4;spacingRight=4;overflow=hidden;rotatable=0;points=[[0,0.5],[1,0.5]];portConstraint=eastwest;" parent="10" vertex="1">
                    <mxGeometry y="60" width="160" height="26" as="geometry"/>
                </mxCell>
                <mxCell id="D_V7qYtZIaXDzSuFnixD-36" value="+ append(self,obj:dict):list" style="text;strokeColor=none;fillColor=none;align=left;verticalAlign=top;spacingLeft=4;spacingRight=4;overflow=hidden;rotatable=0;points=[[0,0.5],[1,0.5]];portConstraint=eastwest;" vertex="1" parent="10">
                    <mxGeometry y="86" width="160" height="26" as="geometry"/>
                </mxCell>
                <mxCell id="D_V7qYtZIaXDzSuFnixD-35" value="+ atender(self):list" style="text;strokeColor=none;fillColor=none;align=left;verticalAlign=top;spacingLeft=4;spacingRight=4;overflow=hidden;rotatable=0;points=[[0,0.5],[1,0.5]];portConstraint=eastwest;" vertex="1" parent="10">
                    <mxGeometry y="112" width="160" height="26" as="geometry"/>
                </mxCell>
                <mxCell id="15" value="" style="endArrow=diamondThin;endFill=0;endSize=24;html=1;" parent="1" source="16" target="16" edge="1">
                    <mxGeometry width="160" relative="1" as="geometry">
                        <mxPoint x="480" y="559" as="sourcePoint"/>
                        <mxPoint x="330" y="709" as="targetPoint"/>
                        <Array as="points">
                            <mxPoint x="510" y="639"/>
                            <mxPoint x="510" y="719"/>
                            <mxPoint x="340" y="719"/>
                        </Array>
                    </mxGeometry>
                </mxCell>
                <mxCell id="16" value="List" style="swimlane;fontStyle=1;align=center;verticalAlign=top;childLayout=stackLayout;horizontal=1;startSize=26;horizontalStack=0;resizeParent=1;resizeParentMax=0;resizeLast=0;collapsible=1;marginBottom=0;" parent="1" vertex="1">
                    <mxGeometry x="260" y="619" width="160" height="34" as="geometry"/>
                </mxCell>
                <mxCell id="18" value="" style="line;strokeWidth=1;fillColor=none;align=left;verticalAlign=middle;spacingTop=-1;spacingLeft=3;spacingRight=3;rotatable=0;labelPosition=right;points=[];portConstraint=eastwest;strokeColor=inherit;" parent="16" vertex="1">
                    <mxGeometry y="26" width="160" height="8" as="geometry"/>
                </mxCell>
                <mxCell id="21" value="" style="endArrow=diamondThin;endFill=1;endSize=24;html=1;" edge="1" parent="1" source="10" target="6">
                    <mxGeometry width="160" relative="1" as="geometry">
                        <mxPoint x="460" y="569" as="sourcePoint"/>
                        <mxPoint x="505" y="494.45000000000005" as="targetPoint"/>
                    </mxGeometry>
                </mxCell>
                <mxCell id="22" value="" style="endArrow=diamondThin;endFill=0;endSize=24;html=1;" edge="1" parent="1" source="16" target="10">
                    <mxGeometry width="160" relative="1" as="geometry">
                        <mxPoint x="310" y="569" as="sourcePoint"/>
                        <mxPoint x="470" y="569" as="targetPoint"/>
                    </mxGeometry>
                </mxCell>
                <mxCell id="23" value="Frame" style="swimlane;fontStyle=1;align=center;verticalAlign=top;childLayout=stackLayout;horizontal=1;startSize=26;horizontalStack=0;resizeParent=1;resizeParentMax=0;resizeLast=0;collapsible=1;marginBottom=0;" vertex="1" parent="1">
                    <mxGeometry x="580" y="260" width="160" height="34" as="geometry"/>
                </mxCell>
                <mxCell id="25" value="" style="line;strokeWidth=1;fillColor=none;align=left;verticalAlign=middle;spacingTop=-1;spacingLeft=3;spacingRight=3;rotatable=0;labelPosition=right;points=[];portConstraint=eastwest;strokeColor=inherit;" vertex="1" parent="23">
                    <mxGeometry y="26" width="160" height="8" as="geometry"/>
                </mxCell>
                <mxCell id="27" value="Extends" style="endArrow=block;endSize=16;endFill=0;html=1;" edge="1" parent="1" source="6" target="23">
                    <mxGeometry width="160" relative="1" as="geometry">
                        <mxPoint x="650" y="350" as="sourcePoint"/>
                        <mxPoint x="810" y="350" as="targetPoint"/>
                    </mxGeometry>
                </mxCell>
            </root>
        </mxGraphModel>
    </diagram>
    <diagram id="QRSShmUF7k_qi_U2upsz" name="algoritmo de eliminacion">
        <mxGraphModel dx="656" dy="475" grid="1" gridSize="10" guides="1" tooltips="1" connect="1" arrows="1" fold="1" page="1" pageScale="1" pageWidth="850" pageHeight="1100" math="0" shadow="0">
            <root>
                <mxCell id="0"/>
                <mxCell id="1" parent="0"/>
                <mxCell id="UBGm5XGB-jAg2zNIKXWQ-8" value="" style="edgeStyle=orthogonalEdgeStyle;html=1;" parent="1" source="UBGm5XGB-jAg2zNIKXWQ-1" target="UBGm5XGB-jAg2zNIKXWQ-7" edge="1">
                    <mxGeometry relative="1" as="geometry"/>
                </mxCell>
                <mxCell id="UBGm5XGB-jAg2zNIKXWQ-1" value="" style="strokeWidth=2;html=1;shape=mxgraph.flowchart.start_1;whiteSpace=wrap;" parent="1" vertex="1">
                    <mxGeometry x="375" y="80" width="100" height="60" as="geometry"/>
                </mxCell>
                <mxCell id="UBGm5XGB-jAg2zNIKXWQ-5" value="no" style="edgeStyle=orthogonalEdgeStyle;html=1;entryX=0.5;entryY=0;entryDx=0;entryDy=0;exitX=1;exitY=0.5;exitDx=0;exitDy=0;exitPerimeter=0;" parent="1" source="UBGm5XGB-jAg2zNIKXWQ-2" target="UBGm5XGB-jAg2zNIKXWQ-4" edge="1">
                    <mxGeometry relative="1" as="geometry"/>
                </mxCell>
                <mxCell id="UBGm5XGB-jAg2zNIKXWQ-6" value="si" style="edgeStyle=orthogonalEdgeStyle;html=1;exitX=0;exitY=0.5;exitDx=0;exitDy=0;exitPerimeter=0;" parent="1" source="UBGm5XGB-jAg2zNIKXWQ-2" target="UBGm5XGB-jAg2zNIKXWQ-13" edge="1">
                    <mxGeometry relative="1" as="geometry">
                        <mxPoint x="395" y="460" as="targetPoint"/>
                        <Array as="points">
                            <mxPoint x="395" y="390"/>
                        </Array>
                        <mxPoint as="offset"/>
                    </mxGeometry>
                </mxCell>
                <mxCell id="UBGm5XGB-jAg2zNIKXWQ-2" value="A[0]!=A" style="strokeWidth=2;html=1;shape=mxgraph.flowchart.decision;whiteSpace=wrap;" parent="1" vertex="1">
                    <mxGeometry x="465" y="340" width="100" height="100" as="geometry"/>
                </mxCell>
                <mxCell id="UBGm5XGB-jAg2zNIKXWQ-11" style="edgeStyle=orthogonalEdgeStyle;html=1;" parent="1" source="UBGm5XGB-jAg2zNIKXWQ-4" target="UBGm5XGB-jAg2zNIKXWQ-7" edge="1">
                    <mxGeometry relative="1" as="geometry">
                        <Array as="points">
                            <mxPoint x="635" y="760"/>
                            <mxPoint x="165" y="760"/>
                            <mxPoint x="165" y="330"/>
                            <mxPoint x="425" y="330"/>
                        </Array>
                    </mxGeometry>
                </mxCell>
                <mxCell id="UBGm5XGB-jAg2zNIKXWQ-4" value="sleep(.2)" style="rounded=1;whiteSpace=wrap;html=1;absoluteArcSize=1;arcSize=14;strokeWidth=2;" parent="1" vertex="1">
                    <mxGeometry x="585" y="450" width="100" height="40" as="geometry"/>
                </mxCell>
                <mxCell id="UBGm5XGB-jAg2zNIKXWQ-9" value="" style="edgeStyle=orthogonalEdgeStyle;html=1;exitX=1;exitY=0.5;exitDx=0;exitDy=0;exitPerimeter=0;" parent="1" source="UBGm5XGB-jAg2zNIKXWQ-7" target="UBGm5XGB-jAg2zNIKXWQ-2" edge="1">
                    <mxGeometry relative="1" as="geometry"/>
                </mxCell>
                <mxCell id="UBGm5XGB-jAg2zNIKXWQ-29" style="edgeStyle=orthogonalEdgeStyle;html=1;exitX=0;exitY=0.5;exitDx=0;exitDy=0;exitPerimeter=0;" parent="1" source="UBGm5XGB-jAg2zNIKXWQ-7" target="UBGm5XGB-jAg2zNIKXWQ-28" edge="1">
                    <mxGeometry relative="1" as="geometry">
                        <Array as="points">
                            <mxPoint x="130" y="240"/>
                            <mxPoint x="130" y="790"/>
                            <mxPoint x="410" y="790"/>
                        </Array>
                    </mxGeometry>
                </mxCell>
                <mxCell id="UBGm5XGB-jAg2zNIKXWQ-7" value="len(A)&amp;gt;0" style="strokeWidth=2;html=1;shape=mxgraph.flowchart.decision;whiteSpace=wrap;" parent="1" vertex="1">
                    <mxGeometry x="375" y="190" width="100" height="100" as="geometry"/>
                </mxCell>
                <mxCell id="UBGm5XGB-jAg2zNIKXWQ-20" style="edgeStyle=orthogonalEdgeStyle;html=1;" parent="1" source="UBGm5XGB-jAg2zNIKXWQ-13" target="UBGm5XGB-jAg2zNIKXWQ-19" edge="1">
                    <mxGeometry relative="1" as="geometry"/>
                </mxCell>
                <mxCell id="UBGm5XGB-jAg2zNIKXWQ-13" value="B=A.pop()" style="rounded=1;whiteSpace=wrap;html=1;absoluteArcSize=1;arcSize=14;strokeWidth=2;" parent="1" vertex="1">
                    <mxGeometry x="345" y="430" width="100" height="40" as="geometry"/>
                </mxCell>
                <mxCell id="UBGm5XGB-jAg2zNIKXWQ-22" value="" style="edgeStyle=orthogonalEdgeStyle;html=1;" parent="1" source="UBGm5XGB-jAg2zNIKXWQ-17" target="UBGm5XGB-jAg2zNIKXWQ-18" edge="1">
                    <mxGeometry relative="1" as="geometry"/>
                </mxCell>
                <mxCell id="UBGm5XGB-jAg2zNIKXWQ-17" value="B.obj.sol-5" style="rounded=1;whiteSpace=wrap;html=1;absoluteArcSize=1;arcSize=14;strokeWidth=2;" parent="1" vertex="1">
                    <mxGeometry x="225" y="580" width="100" height="40" as="geometry"/>
                </mxCell>
                <mxCell id="UBGm5XGB-jAg2zNIKXWQ-23" style="edgeStyle=orthogonalEdgeStyle;html=1;entryX=0.5;entryY=1;entryDx=0;entryDy=0;entryPerimeter=0;" parent="1" source="UBGm5XGB-jAg2zNIKXWQ-18" target="UBGm5XGB-jAg2zNIKXWQ-7" edge="1">
                    <mxGeometry relative="1" as="geometry">
                        <Array as="points">
                            <mxPoint x="165" y="670"/>
                            <mxPoint x="165" y="330"/>
                            <mxPoint x="425" y="330"/>
                        </Array>
                    </mxGeometry>
                </mxCell>
                <mxCell id="UBGm5XGB-jAg2zNIKXWQ-18" value="A.append(B)" style="rounded=1;whiteSpace=wrap;html=1;absoluteArcSize=1;arcSize=14;strokeWidth=2;" parent="1" vertex="1">
                    <mxGeometry x="225" y="650" width="100" height="40" as="geometry"/>
                </mxCell>
                <mxCell id="UBGm5XGB-jAg2zNIKXWQ-21" style="edgeStyle=orthogonalEdgeStyle;html=1;entryX=0.5;entryY=0;entryDx=0;entryDy=0;" parent="1" source="UBGm5XGB-jAg2zNIKXWQ-19" target="UBGm5XGB-jAg2zNIKXWQ-17" edge="1">
                    <mxGeometry relative="1" as="geometry"/>
                </mxCell>
                <mxCell id="UBGm5XGB-jAg2zNIKXWQ-25" style="edgeStyle=orthogonalEdgeStyle;html=1;entryX=0.5;entryY=0;entryDx=0;entryDy=0;" parent="1" source="UBGm5XGB-jAg2zNIKXWQ-19" target="UBGm5XGB-jAg2zNIKXWQ-24" edge="1">
                    <mxGeometry relative="1" as="geometry">
                        <Array as="points">
                            <mxPoint x="495" y="540"/>
                        </Array>
                    </mxGeometry>
                </mxCell>
                <mxCell id="UBGm5XGB-jAg2zNIKXWQ-19" value="B.obj.sol&amp;gt;5" style="strokeWidth=2;html=1;shape=mxgraph.flowchart.decision;whiteSpace=wrap;" parent="1" vertex="1">
                    <mxGeometry x="345" y="490" width="100" height="100" as="geometry"/>
                </mxCell>
                <mxCell id="UBGm5XGB-jAg2zNIKXWQ-27" style="edgeStyle=orthogonalEdgeStyle;html=1;entryX=0.5;entryY=1;entryDx=0;entryDy=0;entryPerimeter=0;" parent="1" source="UBGm5XGB-jAg2zNIKXWQ-24" target="UBGm5XGB-jAg2zNIKXWQ-7" edge="1">
                    <mxGeometry relative="1" as="geometry">
                        <Array as="points">
                            <mxPoint x="495" y="760"/>
                            <mxPoint x="165" y="760"/>
                            <mxPoint x="165" y="330"/>
                            <mxPoint x="425" y="330"/>
                        </Array>
                    </mxGeometry>
                </mxCell>
                <mxCell id="UBGm5XGB-jAg2zNIKXWQ-24" value="del B" style="rounded=1;whiteSpace=wrap;html=1;absoluteArcSize=1;arcSize=14;strokeWidth=2;" parent="1" vertex="1">
                    <mxGeometry x="445" y="580" width="100" height="40" as="geometry"/>
                </mxCell>
                <mxCell id="UBGm5XGB-jAg2zNIKXWQ-28" value="" style="strokeWidth=2;html=1;shape=mxgraph.flowchart.terminator;whiteSpace=wrap;" parent="1" vertex="1">
                    <mxGeometry x="360" y="830" width="100" height="60" as="geometry"/>
                </mxCell>
            </root>
        </mxGraphModel>
    </diagram>
    <diagram id="wO8kQoXXm5LsmHrKUFCf" name="diseño">
        <mxGraphModel dx="656" dy="475" grid="1" gridSize="10" guides="1" tooltips="1" connect="1" arrows="1" fold="1" page="1" pageScale="1" pageWidth="850" pageHeight="1100" math="0" shadow="0">
            <root>
                <mxCell id="0"/>
                <mxCell id="1" parent="0"/>
                <mxCell id="DKGZRzb1GAe5KNHhCZGX-1" value="" style="rounded=1;whiteSpace=wrap;html=1;absoluteArcSize=1;arcSize=14;strokeWidth=2;" parent="1" vertex="1">
                    <mxGeometry x="160" y="210" width="300" height="400" as="geometry"/>
                </mxCell>
                <mxCell id="DKGZRzb1GAe5KNHhCZGX-2" value="" style="rounded=1;whiteSpace=wrap;html=1;absoluteArcSize=1;arcSize=14;strokeWidth=2;" parent="1" vertex="1">
                    <mxGeometry x="180" y="220" width="250" height="120" as="geometry"/>
                </mxCell>
                <mxCell id="DKGZRzb1GAe5KNHhCZGX-6" value="" style="rounded=1;whiteSpace=wrap;html=1;absoluteArcSize=1;arcSize=14;strokeWidth=2;" parent="1" vertex="1">
                    <mxGeometry x="260" y="220" width="180" height="90" as="geometry"/>
                </mxCell>
                <mxCell id="DKGZRzb1GAe5KNHhCZGX-7" value="Nombre&lt;br&gt;solicitudes&lt;br&gt;prioridad" style="rounded=1;whiteSpace=wrap;html=1;absoluteArcSize=1;arcSize=14;strokeWidth=2;" parent="1" vertex="1">
                    <mxGeometry x="180" y="220" width="80" height="50" as="geometry"/>
                </mxCell>
                <mxCell id="DKGZRzb1GAe5KNHhCZGX-8" value="ACEPTAR" style="rounded=1;whiteSpace=wrap;html=1;absoluteArcSize=1;arcSize=14;strokeWidth=2;" parent="1" vertex="1">
                    <mxGeometry x="180" y="310" width="260" height="30" as="geometry"/>
                </mxCell>
                <mxCell id="DKGZRzb1GAe5KNHhCZGX-9" value="CAJERO" style="rounded=1;whiteSpace=wrap;html=1;absoluteArcSize=1;arcSize=14;strokeWidth=2;" parent="1" vertex="1">
                    <mxGeometry x="190" y="370" width="240" height="42" as="geometry"/>
                </mxCell>
                <mxCell id="MonlOCoN1AFZ57oYLIkX-4" value="" style="group" parent="1" vertex="1" connectable="0">
                    <mxGeometry x="190" y="412" width="220" height="168" as="geometry"/>
                </mxCell>
                <mxCell id="DKGZRzb1GAe5KNHhCZGX-10" value="Nombre" style="rounded=1;whiteSpace=wrap;html=1;absoluteArcSize=1;arcSize=14;strokeWidth=2;" parent="MonlOCoN1AFZ57oYLIkX-4" vertex="1">
                    <mxGeometry width="110" height="42" as="geometry"/>
                </mxCell>
                <mxCell id="DKGZRzb1GAe5KNHhCZGX-12" value="Solicitudes" style="rounded=1;whiteSpace=wrap;html=1;absoluteArcSize=1;arcSize=14;strokeWidth=2;" parent="MonlOCoN1AFZ57oYLIkX-4" vertex="1">
                    <mxGeometry x="110" width="110" height="42" as="geometry"/>
                </mxCell>
                <mxCell id="DKGZRzb1GAe5KNHhCZGX-22" value="Nombre" style="rounded=1;whiteSpace=wrap;html=1;absoluteArcSize=1;arcSize=14;strokeWidth=2;" parent="MonlOCoN1AFZ57oYLIkX-4" vertex="1">
                    <mxGeometry y="42" width="110" height="42" as="geometry"/>
                </mxCell>
                <mxCell id="DKGZRzb1GAe5KNHhCZGX-23" value="Solicitudes" style="rounded=1;whiteSpace=wrap;html=1;absoluteArcSize=1;arcSize=14;strokeWidth=2;" parent="MonlOCoN1AFZ57oYLIkX-4" vertex="1">
                    <mxGeometry x="110" y="42" width="110" height="42" as="geometry"/>
                </mxCell>
                <mxCell id="DKGZRzb1GAe5KNHhCZGX-24" value="Nombre" style="rounded=1;whiteSpace=wrap;html=1;absoluteArcSize=1;arcSize=14;strokeWidth=2;" parent="MonlOCoN1AFZ57oYLIkX-4" vertex="1">
                    <mxGeometry y="84" width="110" height="42" as="geometry"/>
                </mxCell>
                <mxCell id="DKGZRzb1GAe5KNHhCZGX-25" value="Solicitudes" style="rounded=1;whiteSpace=wrap;html=1;absoluteArcSize=1;arcSize=14;strokeWidth=2;" parent="MonlOCoN1AFZ57oYLIkX-4" vertex="1">
                    <mxGeometry x="110" y="84" width="110" height="42" as="geometry"/>
                </mxCell>
                <mxCell id="DKGZRzb1GAe5KNHhCZGX-26" value="Nombre" style="rounded=1;whiteSpace=wrap;html=1;absoluteArcSize=1;arcSize=14;strokeWidth=2;" parent="MonlOCoN1AFZ57oYLIkX-4" vertex="1">
                    <mxGeometry y="125.99999999999999" width="110" height="42" as="geometry"/>
                </mxCell>
                <mxCell id="DKGZRzb1GAe5KNHhCZGX-27" value="Solicitudes" style="rounded=1;whiteSpace=wrap;html=1;absoluteArcSize=1;arcSize=14;strokeWidth=2;" parent="MonlOCoN1AFZ57oYLIkX-4" vertex="1">
                    <mxGeometry x="110" y="125.99999999999999" width="110" height="42" as="geometry"/>
                </mxCell>
                <mxCell id="MonlOCoN1AFZ57oYLIkX-5" value="" style="rounded=1;whiteSpace=wrap;html=1;absoluteArcSize=1;arcSize=14;strokeWidth=2;" parent="1" vertex="1">
                    <mxGeometry x="410" y="412" width="20" height="168" as="geometry"/>
                </mxCell>
                <mxCell id="4GOpPBpQWvTRKhXB5uqU-1" style="edgeStyle=none;html=1;exitX=0;exitY=0.5;exitDx=0;exitDy=0;entryX=0.125;entryY=0.5;entryDx=0;entryDy=0;entryPerimeter=0;" edge="1" parent="1" source="DKGZRzb1GAe5KNHhCZGX-7" target="DKGZRzb1GAe5KNHhCZGX-7">
                    <mxGeometry relative="1" as="geometry"/>
                </mxCell>
            </root>
        </mxGraphModel>
    </diagram>
</mxfile>